<?xml version="1.0" encoding="UTF-8" standalone="no"?>
<!-- Created with Inkscape (http://www.inkscape.org/) -->

<svg
   width="512"
   height="512"
   viewBox="0 0 512 512"
   version="1.1"
   id="svg1"
   xml:space="preserve"
   xmlns="http://www.w3.org/2000/svg"
   xmlns:svg="http://www.w3.org/2000/svg"><defs
     id="defs1" /><g
     id="layer1"><path
       style="fill:#ffffff;fill-opacity:1;stroke-width:2.74119"
       d="m 403.56564,428.61789 c -2.52795,-1.98849 -4.20282,-6.73346 -3.46168,-9.80715 0.66123,-2.74234 4.366,-6.56317 7.00631,-7.22585 3.04971,-0.76545 7.78859,0.98762 9.88944,3.65841 1.14831,1.45988 1.76807,3.56623 1.76807,6.00929 0,7.69123 -9.15127,12.12493 -15.20214,7.3653 z m -282.67491,-3.83846 c -4.29701,-1.87092 -6.50446,-5.34803 -6.50446,-10.24557 0,-3.68188 0.40693,-4.6453 3.09938,-7.33772 2.70977,-2.70981 3.64315,-3.09938 7.42549,-3.09938 11.44208,0 15.06047,13.47913 5.35396,19.94428 -3.38828,2.25679 -5.50423,2.42345 -9.37437,0.73839 z M 380.4534,298.29718 c -2.5583,-1.26166 -5.54463,-5.69638 -5.54463,-8.23384 0,-2.41351 3.04203,-7.18465 5.3378,-8.37186 4.18914,-2.16628 7.64263,-1.62983 10.97775,1.70529 4.89869,4.8987 3.83996,11.83467 -2.29037,15.0048 -3.18858,1.64888 -4.96978,1.62695 -8.48055,-0.10444 z M 20.73874,180.36922 c -9.499093,-4.82906 -11.512962,-17.52101 -3.946269,-24.87052 10.267421,-9.97274 26.54221,-3.02312 26.54221,11.33396 0,11.44397 -12.262239,18.78991 -22.595941,13.53656 z m 207.74528,-34.80278 c -6.43907,-1.21135 -12.34485,-8.6281 -12.34485,-15.50319 0,-5.7654 3.53111,-11.3688 8.94753,-14.19847 3.46805,-1.81179 11.10039,-1.57591 14.41542,0.44549 6.35643,3.87596 9.6032,12.06819 7.41305,18.70449 -1.46045,4.42513 -6.48439,9.07539 -11.04551,10.22389 -2.11252,0.53193 -4.15956,0.91339 -4.54897,0.84769 -0.38944,-0.0658 -1.66593,-0.29964 -2.83667,-0.5199 z M 463.9445,135.1749 c -11.07281,-5.77351 -12.33666,-20.51904 -2.32648,-27.14348 8.4007,-5.55932 19.01338,-2.75358 23.02919,6.08837 2.75986,6.07658 1.60614,12.9968 -2.98362,17.89648 -4.09799,4.37465 -12.51075,5.87433 -17.71909,3.15863 z M 265.69984,59.871189 c -5.77412,-2.588037 -9.2611,-7.919977 -9.40216,-14.376817 -0.10965,-5.015223 1.73728,-8.790332 6.03234,-12.330686 6.18919,-5.101652 13.92902,-4.772737 20.03032,0.851249 7.01561,6.466763 7.07175,14.263963 0.16502,22.928501 -2.98718,3.747478 -11.63823,5.252802 -16.82565,2.927753 z"
       id="path3" /></g></svg>
